<?xml version="1.0" encoding="utf-8"?>
<!-- Svg Vector Icons : http://www.onlinewebfonts.com/icon -->
<!DOCTYPE svg PUBLIC "-//W3C//DTD SVG 1.1//EN" "http://www.w3.org/Graphics/SVG/1.1/DTD/svg11.dtd">
<svg version="1.1" xmlns="http://www.w3.org/2000/svg" xmlns:xlink="http://www.w3.org/1999/xlink" x="0px" y="0px" viewBox="0 0 1000 1000" enable-background="new 0 0 1000 1000" xml:space="preserve">
<metadata> Svg Vector Icons : http://www.onlinewebfonts.com/icon </metadata>
<g><g transform="translate(0.000000,511.000000) scale(0.100000,-0.100000)"><path d="M9521.1,4973.1c-125.1-44.2-9134.7-3780-9277-3843.7C47.9,1036.1,52.8,783.5,254,673.1c14.7-7.4,986.1-230.6,2158.6-495.5C3585-87.3,4551.5-310.5,4561.3-320.4c7.4-9.8,233-976.3,497.9-2148.7c264.9-1172.5,495.5-2161,515.1-2197.8c68.7-134.9,269.8-154.5,380.2-36.8c29.4,31.9,404.7,900.2,834,1930.5c426.8,1027.8,1300,3125,1937.8,4655.6C9364.1,3413,9891.5,4695.9,9898.9,4730.2c9.8,63.8-46.6,201.1-93.2,230.6C9724.7,5009.9,9634,5014.8,9521.1,4973.1z M6636.5,2110.5L4706,180.1L2952.2,572.5c-966.5,213.4-1756.3,394.9-1756.3,402.3s488.1,213.4,1086.6,461.1c596.1,247.8,2244.4,934.6,3659.8,1525.7C7360.1,3552.8,8527.7,4036,8542.4,4038.5C8554.7,4040.9,7698.6,3172.6,6636.5,2110.5z M8876,3582.2c-193.8-488.1-2999.9-7233.7-3014.6-7248.4c-9.8-9.8-196.2,775.1-417,1741.6L5047-165.8l1930.5,1930.5C8042,2829.2,8912.8,3697.5,8915.3,3697.5C8920.2,3697.5,8900.5,3646,8876,3582.2z"/></g></g>
</svg>